<?xml version="1.0" standalone="no"?>
<!DOCTYPE svg PUBLIC "-//W3C//DTD SVG 20010904//EN"
 "http://www.w3.org/TR/2001/REC-SVG-20010904/DTD/svg10.dtd">
<svg version="1.0" xmlns="http://www.w3.org/2000/svg"
 width="900.000000pt" height="900.000000pt" viewBox="0 0 900.000000 900.000000"
 preserveAspectRatio="xMidYMid meet">
<metadata>
Created by potrace 1.14, written by Peter Selinger 2001-2017
</metadata>
<g transform="translate(0.000000,900.000000) scale(0.100000,-0.100000)"
fill="#000000" stroke="none">
<path d="M4019 8996 c-2 -2 -31 -6 -64 -9 -33 -3 -78 -8 -100 -12 -22 -3 -53
-8 -70 -10 -78 -11 -159 -30 -376 -85 -56 -15 -300 -100 -343 -121 -22 -11
-44 -19 -49 -19 -16 0 -251 -117 -353 -176 -81 -46 -279 -176 -327 -214 -290
-228 -346 -276 -497 -425 -144 -142 -193 -196 -319 -350 -183 -225 -371 -541
-484 -815 -72 -175 -169 -500 -191 -640 -3 -19 -12 -78 -20 -130 -8 -52 -18
-115 -22 -140 -4 -25 -9 -1351 -11 -2948 l-4 -2902 963 2 963 3 0 1668 c0
1661 0 1667 20 1668 11 0 545 1 1188 1 l1167 1 1 41 c4 260 1 1947 -4 1952 -4
4 -524 7 -1157 7 -822 0 -1150 3 -1151 11 -6 70 4 281 17 351 25 142 120 412
193 552 103 197 297 385 567 548 87 53 271 136 333 150 9 2 41 11 71 19 30 9
73 18 95 22 22 3 42 7 46 9 3 2 30 7 59 10 30 4 57 8 60 10 5 3 148 16 235 20
28 2 529 3 1116 4 l1065 1 1 473 c1 259 2 693 3 962 0 270 1 496 1 503 -1 10
-262 12 -1310 12 -719 0 -1310 -2 -1312 -4z"/>
<path d="M6605 2900 c-27 -4 -68 -10 -91 -13 -22 -3 -75 -15 -117 -26 -457
-123 -826 -461 -987 -906 -132 -365 -108 -779 65 -1128 141 -284 399 -538 676
-665 406 -188 863 -183 1257 11 175 87 340 217 469 372 169 202 293 484 320
731 15 130 9 368 -12 462 -24 108 -46 185 -76 259 -181 455 -577 785 -1064
884 -107 22 -349 33 -440 19z"/>
</g>
</svg>
