<?xml version="1.0" encoding="utf-8"?>
<!-- Generator: Adobe Illustrator 23.1.0, SVG Export Plug-In . SVG Version: 6.00 Build 0)  -->
<svg version="1.1" xmlns="http://www.w3.org/2000/svg" xmlns:xlink="http://www.w3.org/1999/xlink" x="0px" y="0px"
	 viewBox="0 0 80 80" style="enable-background:new 0 0 80 80;" xml:space="preserve">
<style type="text/css">
	.st0{fill:#3B5998;}
	.st1{fill:#FFFFFF;}
</style>
<g id="Layer_1">
</g>
<g id="svg4730">
	<g id="g4678" transform="translate(375.7163,120.5527)">
		<path id="path4680" class="st0" d="M-310.95-40.46c8.38,0,15.18-6.8,15.18-15.18v-49.24c0-8.38-6.8-15.18-15.18-15.18h-49.24
			c-8.38,0-15.18,6.8-15.18,15.18v49.24c0,8.38,6.8,15.18,15.18,15.18L-310.95-40.46z"/>
	</g>
	<g id="g4682" transform="translate(307.7046,120.5527)">
		<path id="path4684" class="st1" d="M-252.43-40.46v-30.83h10.35l1.55-12.01h-11.9v-7.67c0-3.48,0.97-5.85,5.95-5.85l6.36,0v-10.74
			c-1.1-0.15-4.88-0.47-9.27-0.47c-9.17,0-15.45,5.6-15.45,15.88v8.86h-10.37v12.01h10.37v30.83H-252.43z"/>
	</g>
</g>
</svg>
