<?xml version="1.0" encoding="utf-8"?>
<!-- Generator: Adobe Illustrator 23.1.0, SVG Export Plug-In . SVG Version: 6.00 Build 0)  -->
<svg version="1.1" id="Layer_1" xmlns="http://www.w3.org/2000/svg" xmlns:xlink="http://www.w3.org/1999/xlink" x="0px" y="0px"
	 viewBox="0 0 260 55" style="enable-background:new 0 0 260 55;" xml:space="preserve">
<g>
	<path d="M8.4,13.56c-2.43,1.72-4.18,3.6-5.48,5.77c-1.39,2.32-2.12,5.11-2.12,7.66c0,2.55,0,25.88,0,25.88h8.99V37.23h11.11v-9.34
		H10.09c0,0-0.07-1.45,0.23-2.35c0.65-1.94,0.93-2.67,2.49-3.89c1.49-1.16,3.01-1.77,6.27-1.77c3.78,0,9.05,0,9.05,0l0.03-9.11
		c0,0-9.89,0-11.43,0C14.54,10.78,11.21,11.57,8.4,13.56z M31.93,45.27h9.08V10.8h-9.08V45.27z M62.04,35.52L78.7,11.09v-0.38H44.64
		v9.08H61.7v0.32L44.93,44.81v0.38H79.1v-9.31H62.04V35.52L62.04,35.52z M83.13,45.21h8.96l0.03-34.38h-8.99V45.21z M127.55,16.23
		c-1.13-1.28-3.02-3.13-4.67-4.09c-1.65-0.96-3.71-1.83-5.13-2.12s-4.18-0.32-4.18-0.32s-4.67,0.06-6.93,1.22s-4.58,2.55-5.92,4.06
		c-1.33,1.51-2.41,2.76-3.1,4.26c-0.7,1.51-1.57,4.55-1.68,5.98c-0.12,1.42-0.15,5.25,0.44,7.4c0.58,2.15,2.73,5.71,4.32,7.19
		c1.2,1.11,2.57,2.44,4.84,3.66c1.74,0.93,4.3,1.63,5.92,1.83c1.65,0.2,3.86,0.12,6.47-0.41c2.29-0.46,5.22-2.06,6.38-3.02
		c0.92-0.76,3.31-2.96,4.47-4.82c1.16-1.86,2.26-4.83,2.55-7.28c0.23-1.97,0.15-3.77-0.17-5.8
		C130.68,21.07,128.68,17.51,127.55,16.23z M120.5,31.87c-0.7,1.19-2.08,2.48-3.39,3.16c-1.62,0.84-4.96,0.81-6.88-0.03
		c-1.25-0.55-3.16-2.18-3.97-3.68c-0.81-1.51-0.99-3.63-0.84-5.22c0.15-1.6,1.89-4.03,2.99-5.08c1.1-1.04,3.1-1.65,5.16-1.65
		c2.06,0,4.51,0.83,5.74,2.12c1.39,1.45,2.38,3.37,2.41,5.66C121.74,28.79,121.2,30.68,120.5,31.87z M150.87,36.19
		c-2.03-0.12-3.48-0.89-4.9-2.09c-1.17-0.98-2.18-2.81-2.41-4.29c-0.23-1.48-0.23-1.02-0.26-1.94c-0.03-0.93,0-8.01,0-8.01h10.76
		v-9.43l-10.85-0.09l-0.06-8.21h-9.02c0,0,0,25.53,0,27.15c0,1.62,0.76,5,1.77,6.93c0.73,1.39,2.05,3.08,3.54,4.47
		c0.63,0.58,3.3,2.64,4.55,3.28c2.17,1.1,5.98,1.28,5.98,1.28h4.12v-9.05C154.09,36.19,151.77,36.24,150.87,36.19z M187.02,14.66
		c-1.73-1.73-3.19-2.67-4.67-3.37c-1.48-0.7-2.38-1.16-3.71-1.39c-1.13-0.2-1.89-0.29-4.26-0.29c-3.6,0-5.95,0.81-7.08,1.36
		c-0.87,0.43-4.76,2.81-6.01,4.29c-1.25,1.48-2.9,3.89-3.48,5.48c-0.58,1.6-1.13,3.95-1.13,5.08c0,1.13-0.09,4.53,0.55,6.67
		c0.64,2.15,2.18,4.84,3.66,6.59c1.48,1.74,3.51,3.22,5.22,4.21c1.71,0.99,3.45,1.48,5.02,1.77c1.57,0.29,2.15,0.38,3.31,0.35
		c1.16-0.03,2.41,0.03,4.09-0.41s3.6-1.13,5.16-2.18c1.57-1.04,2.47-2,3.48-2.96c1.02-0.96,2.47-3.05,2.47-3.05l-10.47-2.44
		c0,0-1.28,0.96-2.41,1.22c-1.13,0.26-3.19,0.35-4.53-0.09c-1.33-0.44-2.43-1.27-3.02-1.68c-0.9-0.64-1.74-2.15-1.74-2.15h24.4
		c0,0,0.38-2.15,0.41-3.89c0.03-1.74-0.55-4.99-1.02-6.47C190.79,19.86,188.99,16.64,187.02,14.66z M166.83,24.73
		c0.06-0.7,1.16-2.9,3.22-4.15c2.06-1.25,3.31-1.28,4.5-1.28c1.19,0,2.06,0.17,3.25,0.58c1.19,0.41,2.15,1.25,3.22,2.55
		c1.07,1.31,1.31,2.29,1.31,2.29S167.9,24.76,166.83,24.73z M205.83,11.61c-1.28,0.77-3.89,2.02-6.33,5.45
		c-1.83,2.58-2.8,4.74-3.19,6.48c-0.39,1.73-0.21,2.12-0.21,2.87c0,0.74,0,18.76,0,18.76h9.38c0,0,0-15.71,0-17.16
		c0-1.45,0.18-2.73,0.92-4.03c0.74-1.31,1.66-2.23,2.65-3.04c0.99-0.81,3.04-1.27,4.53-1.27c1.49,0,10.3,0,10.3,0l0.04-9.56
		c0,0-8.46,0-11.11,0C210.14,10.09,207.24,10.76,205.83,11.61z M258.17,21.2c-0.78-1.88-2.12-3.89-3.19-5.1
		c-1.06-1.2-3.33-3.11-4.67-3.79c-1.34-0.67-3.29-1.42-4.35-1.66c-1.06-0.25-1.7-0.35-3.93-0.35s-5.66,0.53-7.36,1.52
		c-2.04,1.19-4.14,2.58-4.71,3.22c-0.85,0.96-2.48,2.76-3.22,4c-0.74,1.24-1.98,4.81-2.09,6.3c-0.11,1.49-0.28,5.24,0.42,7.08
		c0.71,1.84,1.77,4.74,3.29,6.51c1.52,1.77,2.9,2.76,4.14,3.75c1.24,0.99,3.43,1.66,4.92,2.09c1.49,0.42,2.94,0.6,4.18,0.6
		c1.24,0,2.73-0.07,4.21-0.5c1.49-0.42,4.21-1.81,4.21-1.81v2.09h9.17c0,0,0-16.39,0-17.87C259.2,25.8,258.95,23.07,258.17,21.2z
		 M248.08,32.88c-1.64,1.95-3.75,2.87-6.16,2.87c-2.26,0-4.32-1.1-5.77-2.37c-1.7-1.5-2.27-4.25-2.27-5.59
		c0-2.23,0.74-3.63,1.95-5.17c1.55-1.97,4.53-2.58,6.02-2.58c2.23,0,3.5,0.53,5.17,1.63c1.66,1.1,2.8,4.14,2.8,6.44
		C249.82,30.22,249.22,31.53,248.08,32.88z"/>
</g>
</svg>
