<?xml version="1.0" encoding="utf-8"?>
<!-- Generator: Adobe Illustrator 23.1.0, SVG Export Plug-In . SVG Version: 6.00 Build 0)  -->
<svg version="1.1" id="Layer_1" xmlns="http://www.w3.org/2000/svg" xmlns:xlink="http://www.w3.org/1999/xlink" x="0px" y="0px"
	 viewBox="0 0 260 55" style="enable-background:new 0 0 260 55;" xml:space="preserve">
<style type="text/css">
	.st0{fill:url(#SVGID_1_);}
</style>
<g>
	
		<linearGradient id="SVGID_1_" gradientUnits="userSpaceOnUse" x1="286.4602" y1="-475.56" x2="544.784" y2="-475.56" gradientTransform="matrix(1 0 0 -1 -285.6602 -447.96)">
		<stop  offset="1.331947e-07" style="stop-color:#7928CA"/>
		<stop  offset="1" style="stop-color:#DB8AD7"/>
	</linearGradient>
	<path class="st0" d="M8.4,13.6c-2.4,1.7-4.2,3.6-5.5,5.8c-1.4,2.3-2.1,5.1-2.1,7.7s0,25.9,0,25.9h9V37.2h11.1v-9.3H10.1
		c0,0-0.1-1.5,0.2-2.4c0.6-1.9,0.9-2.7,2.5-3.9c1.5-1.2,3-1.8,6.3-1.8c3.8,0,9.1,0,9.1,0v-9.1c0,0-9.9,0-11.4,0
		C14.5,10.8,11.2,11.6,8.4,13.6z M31.9,45.3H41V10.8h-9.1V45.3z M62,35.5l16.7-24.4v-0.4H44.6v9.1h17.1v0.3L44.9,44.8v0.4h34.2v-9.3
		H62V35.5L62,35.5z M83.1,45.2h9V10.8h-9V45.2z M127.6,16.2c-1.1-1.3-3-3.1-4.7-4.1s-3.7-1.8-5.1-2.1s-4.2-0.3-4.2-0.3
		s-4.7,0.1-6.9,1.2s-4.6,2.6-5.9,4.1s-2.4,2.8-3.1,4.3s-1.6,4.6-1.7,6s-0.2,5.3,0.4,7.4c0.6,2.2,2.7,5.7,4.3,7.2
		c1.2,1.1,2.6,2.4,4.8,3.7c1.7,0.9,4.3,1.6,5.9,1.8c1.7,0.2,3.9,0.1,6.5-0.4c2.3-0.5,5.2-2.1,6.4-3c0.9-0.8,3.3-3,4.5-4.8
		c1.2-1.9,2.3-4.8,2.6-7.3c0.2-2,0.1-3.8-0.2-5.8C130.7,21.1,128.7,17.5,127.6,16.2z M120.5,31.9c-0.7,1.2-2.1,2.5-3.4,3.2
		c-1.6,0.8-5,0.8-6.9,0c-1.3-0.5-3.2-2.2-4-3.7s-1-3.6-0.8-5.2s1.9-4,3-5.1c1.1-1,3.1-1.6,5.2-1.6s4.5,0.8,5.7,2.1
		c1.4,1.5,2.4,3.4,2.4,5.7C121.7,28.8,121.2,30.7,120.5,31.9z M150.9,36.2c-2-0.1-3.5-0.9-4.9-2.1c-1.2-1-2.2-2.8-2.4-4.3
		s-0.2-1-0.3-1.9c0-0.9,0-8,0-8h10.8v-9.4l-10.9-0.1l-0.1-8.2h-9c0,0,0,25.5,0,27.1c0,1.6,0.8,5,1.8,6.9c0.7,1.4,2.1,3.1,3.5,4.5
		c0.6,0.6,3.3,2.6,4.6,3.3c2.2,1.1,6,1.3,6,1.3h4.1v-9C154.1,36.2,151.8,36.2,150.9,36.2z M187,14.7c-1.7-1.7-3.2-2.7-4.7-3.4
		s-2.4-1.2-3.7-1.4c-1.1-0.2-1.9-0.3-4.3-0.3c-3.6,0-5.9,0.8-7.1,1.4c-0.9,0.4-4.8,2.8-6,4.3s-2.9,3.9-3.5,5.5s-1.1,4-1.1,5.1
		s-0.1,4.5,0.6,6.7c0.6,2.2,2.2,4.8,3.7,6.6c1.5,1.7,3.5,3.2,5.2,4.2s3.4,1.5,5,1.8s2.1,0.4,3.3,0.3c1.2,0,2.4,0,4.1-0.4
		s3.6-1.1,5.2-2.2c1.6-1,2.5-2,3.5-3s2.5-3,2.5-3l-10.5-2.4c0,0-1.3,1-2.4,1.2c-1.1,0.3-3.2,0.3-4.5-0.1c-1.3-0.4-2.4-1.3-3-1.7
		c-0.9-0.6-1.7-2.1-1.7-2.1H192c0,0,0.4-2.1,0.4-3.9s-0.6-5-1-6.5C190.8,19.9,189,16.6,187,14.7z M166.8,24.7
		c0.1-0.7,1.2-2.9,3.2-4.1s3.3-1.3,4.5-1.3s2.1,0.2,3.3,0.6s2.1,1.3,3.2,2.5c1.1,1.3,1.3,2.3,1.3,2.3S167.9,24.8,166.8,24.7z
		 M205.8,11.6c-1.3,0.8-3.9,2-6.3,5.4c-1.8,2.6-2.8,4.7-3.2,6.5c-0.4,1.7-0.2,2.1-0.2,2.9c0,0.7,0,18.8,0,18.8h9.4
		c0,0,0-15.7,0-17.2s0.2-2.7,0.9-4s1.7-2.2,2.6-3c1-0.8,3-1.3,4.5-1.3s10.3,0,10.3,0v-9.6c0,0-8.5,0-11.1,0
		C210.1,10.1,207.2,10.8,205.8,11.6z M258.2,21.2c-0.8-1.9-2.1-3.9-3.2-5.1c-1.1-1.2-3.3-3.1-4.7-3.8c-1.3-0.7-3.3-1.4-4.4-1.7
		c-1.1-0.3-1.7-0.4-3.9-0.4s-5.7,0.5-7.4,1.5c-2,1.2-4.1,2.6-4.7,3.2c-0.9,1-2.5,2.8-3.2,4s-2,4.8-2.1,6.3s-0.3,5.2,0.4,7.1
		c0.7,1.8,1.8,4.7,3.3,6.5s2.9,2.8,4.1,3.8s3.4,1.7,4.9,2.1c1.5,0.4,2.9,0.6,4.2,0.6c1.2,0,2.7-0.1,4.2-0.5s4.2-1.8,4.2-1.8v2.1h9.2
		c0,0,0-16.4,0-17.9C259.2,25.8,259,23.1,258.2,21.2z M248.1,32.9c-1.6,2-3.8,2.9-6.2,2.9c-2.3,0-4.3-1.1-5.8-2.4
		c-1.7-1.5-2.3-4.3-2.3-5.6c0-2.2,0.7-3.6,1.9-5.2c1.6-2,4.5-2.6,6-2.6c2.2,0,3.5,0.5,5.2,1.6s2.8,4.1,2.8,6.4
		C249.8,30.2,249.2,31.5,248.1,32.9z"/>
</g>
</svg>
