<?xml version="1.0" encoding="utf-8"?>
<!-- Generator: Adobe Illustrator 12.0.1, SVG Export Plug-In  -->
<!DOCTYPE svg PUBLIC "-//W3C//DTD SVG 1.1//EN" "http://www.w3.org/Graphics/SVG/1.1/DTD/svg11.dtd" [
	<!ENTITY ns_flows "http://ns.adobe.com/Flows/1.0/">
	<!ENTITY ns_svg "http://www.w3.org/2000/svg">
	<!ENTITY ns_xlink "http://www.w3.org/1999/xlink">
]>
<svg  version="1.1" xmlns="&ns_svg;" xmlns:xlink="&ns_xlink;" xmlns:a="http://ns.adobe.com/AdobeSVGViewerExtensions/3.0/"
	 width="203" height="40" viewBox="0 0 203 40" enable-background="new 0 0 203 40" xml:space="preserve">
<defs>
</defs>
<linearGradient id="XMLID_6_" gradientUnits="userSpaceOnUse" x1="285.6602" y1="-388.8691" x2="488.4326" y2="-388.8691" gradientTransform="matrix(1 0 0 -1 -285.6602 -368.96)">
	<stop  offset="0" style="stop-color:#852A83"/>
	<stop  offset="1" style="stop-color:#D21F5F"/>
</linearGradient>
<path fill="url(#XMLID_6_)" d="M5.965,8.97c-1.906,1.352-3.278,2.823-4.303,4.53C0.571,15.32,0,17.507,0,19.51
	c0,2.005,0,20.308,0,20.308h7.058V27.546h8.719v-7.33H7.285c0,0-0.053-1.14,0.183-1.844c0.509-1.523,0.732-2.099,1.958-3.051
	c1.167-0.907,2.36-1.389,4.918-1.389c2.963,0,7.103,0,7.103,0l0.023-7.148c0,0-7.764,0-8.97,0C10.78,6.784,8.168,7.406,5.965,8.97z
	 M24.428,33.854h7.125V6.807h-7.125V33.854z M48.058,26.202L61.125,7.035V6.739H34.4v7.125h13.386v0.25L34.627,33.488v0.296h26.817
	v-7.309H48.058V26.202L48.058,26.202z M64.609,33.807h7.035l0.022-26.978h-7.057V33.807z M99.463,11.064
	c-0.888-1.001-2.368-2.459-3.665-3.209C94.5,7.104,92.884,6.42,91.769,6.192c-1.116-0.228-3.278-0.25-3.278-0.25
	s-3.666,0.046-5.441,0.956c-1.775,0.911-3.598,2.003-4.644,3.188c-1.047,1.184-1.889,2.162-2.437,3.346
	c-0.546,1.183-1.229,3.574-1.32,4.69c-0.091,1.115-0.114,4.119,0.342,5.805c0.455,1.685,2.139,4.484,3.392,5.646
	c0.938,0.87,2.014,1.916,3.802,2.869c1.366,0.729,3.377,1.278,4.644,1.435c1.298,0.159,3.028,0.091,5.076-0.319
	c1.799-0.36,4.099-1.617,5.009-2.367c0.722-0.597,2.596-2.323,3.506-3.779c0.911-1.457,1.777-3.791,2.003-5.714
	c0.182-1.549,0.119-2.957-0.136-4.554C101.922,14.866,100.351,12.065,99.463,11.064z M93.931,23.336
	c-0.546,0.933-1.63,1.944-2.664,2.479c-1.275,0.66-3.893,0.639-5.396-0.021c-0.979-0.432-2.481-1.708-3.119-2.892
	c-0.637-1.185-0.774-2.846-0.66-4.098c0.114-1.252,1.479-3.164,2.344-3.983c0.865-0.82,2.437-1.298,4.053-1.298
	c1.616,0,3.537,0.651,4.507,1.662c1.094,1.138,1.867,2.64,1.89,4.438C94.904,20.923,94.478,22.402,93.931,23.336z M117.767,26.728
	c-1.593-0.092-2.731-0.7-3.848-1.641c-0.915-0.771-1.707-2.208-1.89-3.369c-0.182-1.161-0.182-0.797-0.204-1.524
	c-0.022-0.729,0-6.284,0-6.284h8.446V6.511l-8.515-0.068L111.711,0h-7.079c0,0,0,20.033,0,21.309s0.595,3.926,1.389,5.441
	c0.57,1.091,1.607,2.42,2.776,3.506c0.492,0.457,2.587,2.071,3.573,2.572c1.707,0.866,4.691,1.002,4.691,1.002h3.231v-7.103
	C120.293,26.728,118.472,26.767,117.767,26.728z M146.132,9.835c-1.354-1.356-2.504-2.095-3.664-2.642
	c-1.161-0.547-1.867-0.911-2.914-1.093c-0.89-0.154-1.479-0.228-3.347-0.228c-2.823,0-4.668,0.638-5.555,1.07
	c-0.687,0.335-3.733,2.208-4.713,3.37c-0.979,1.16-2.275,3.051-2.731,4.302c-0.456,1.252-0.888,3.097-0.888,3.984
	c0,0.889-0.069,3.553,0.432,5.237c0.502,1.684,1.707,3.802,2.869,5.167c1.161,1.367,2.756,2.527,4.098,3.301
	c1.343,0.774,2.708,1.161,3.939,1.39c1.229,0.228,1.685,0.296,2.595,0.273c0.91-0.023,1.89,0.022,3.209-0.319
	c1.321-0.342,2.824-0.888,4.054-1.708c1.228-0.819,1.934-1.569,2.731-2.321s1.935-2.391,1.935-2.391l-8.218-1.912
	c0,0-1.002,0.752-1.89,0.956s-2.504,0.272-3.552-0.069c-1.047-0.34-1.908-0.992-2.368-1.319c-0.705-0.501-1.365-1.685-1.365-1.685
	h19.146c0,0,0.296-1.684,0.318-3.051c0.023-1.366-0.432-3.916-0.797-5.076C149.093,13.91,147.681,11.383,146.132,9.835z
	 M130.288,17.734c0.045-0.546,0.911-2.277,2.527-3.255c1.616-0.979,2.594-1.003,3.528-1.003c0.933,0,1.616,0.137,2.551,0.456
	c0.932,0.32,1.683,0.979,2.525,2.003c0.842,1.025,1.024,1.799,1.024,1.799S131.131,17.757,130.288,17.734z M160.889,7.438
	c-1.005,0.603-3.055,1.583-4.971,4.276c-1.438,2.022-2.194,3.722-2.5,5.083c-0.306,1.361-0.166,1.667-0.166,2.25
	c0,0.583,0,14.72,0,14.72h7.36c0,0,0-12.331,0-13.47s0.139-2.14,0.722-3.167c0.583-1.027,1.305-1.75,2.082-2.388
	c0.779-0.639,2.39-1,3.556-1c1.167,0,8.082,0,8.082,0l0.028-7.498c0,0-6.638,0-8.722,0C164.277,6.243,162,6.771,160.889,7.438z
	 M201.967,14.963c-0.611-1.471-1.667-3.055-2.501-3.999c-0.832-0.944-2.61-2.444-3.665-2.972c-1.056-0.528-2.583-1.111-3.416-1.305
	c-0.834-0.194-1.333-0.277-3.083-0.277s-4.444,0.416-5.776,1.194c-1.604,0.935-3.251,2.028-3.694,2.527
	c-0.666,0.75-1.944,2.166-2.526,3.138c-0.585,0.973-1.556,3.777-1.64,4.944c-0.083,1.166-0.222,4.11,0.333,5.554
	c0.556,1.444,1.389,3.722,2.583,5.109c1.193,1.389,2.277,2.167,3.25,2.944c0.972,0.778,2.694,1.305,3.86,1.639
	c1.167,0.334,2.306,0.472,3.277,0.472s2.139-0.054,3.306-0.388c1.166-0.334,3.306-1.417,3.306-1.417v1.639h7.192
	c0,0,0-12.858,0-14.025C202.772,18.574,202.577,16.436,201.967,14.963z M194.052,24.128c-1.29,1.53-2.945,2.25-4.834,2.25
	c-1.776,0-3.388-0.861-4.526-1.86c-1.337-1.174-1.778-3.333-1.778-4.388c0-1.75,0.576-2.849,1.527-4.056
	c1.217-1.543,3.557-2.027,4.723-2.027c1.749,0,2.749,0.416,4.055,1.278c1.305,0.86,2.194,3.249,2.194,5.054
	C195.412,22.045,194.939,23.073,194.052,24.128z"/>
</svg>
