<?xml version="1.0" encoding="utf-8"?>
<!-- Generator: Adobe Illustrator 23.1.0, SVG Export Plug-In . SVG Version: 6.00 Build 0)  -->
<svg version="1.1" id="Layer_1" xmlns="http://www.w3.org/2000/svg" xmlns:xlink="http://www.w3.org/1999/xlink" x="0px" y="0px"
	 viewBox="0 0 80 80" style="enable-background:new 0 0 80 80;" xml:space="preserve">
<style type="text/css">
	.st0{fill:url(#SVGID_1_);}
	.st1{fill:url(#SVGID_2_);}
	.st2{fill:#FFFFFF;}
</style>
<radialGradient id="SVGID_1_" cx="-152.8739" cy="-470.0052" r="39.5897" gradientTransform="matrix(0 -1.982 -1.8439 0 -845.0181 -217.3288)" gradientUnits="userSpaceOnUse">
	<stop  offset="0" style="stop-color:#FFDD55"/>
	<stop  offset="0.1" style="stop-color:#FFDD55"/>
	<stop  offset="0.5" style="stop-color:#FF543E"/>
	<stop  offset="1" style="stop-color:#C837AB"/>
</radialGradient>
<path class="st0" d="M40.2,0.39c-16.53,0-21.37,0.02-22.31,0.1c-3.39,0.28-5.5,0.82-7.8,1.96c-1.77,0.88-3.17,1.9-4.55,3.33
	C3.03,8.39,1.5,11.6,0.95,15.41c-0.27,1.85-0.35,2.23-0.36,11.69c-0.01,3.15,0,7.3,0,12.87c0,16.52,0.02,21.35,0.1,22.29
	c0.27,3.3,0.79,5.38,1.89,7.65c2.1,4.35,6.1,7.61,10.81,8.83c1.63,0.42,3.44,0.65,5.75,0.76c0.98,0.04,10.98,0.07,20.98,0.07
	s20-0.01,20.96-0.06c2.68-0.13,4.24-0.33,5.96-0.78c4.74-1.22,8.67-4.44,10.81-8.85c1.08-2.22,1.62-4.37,1.87-7.5
	c0.05-0.68,0.08-11.56,0.08-22.42c0-10.86-0.02-21.72-0.08-22.4c-0.25-3.18-0.79-5.32-1.9-7.58c-0.91-1.85-1.92-3.23-3.39-4.64
	c-2.62-2.5-5.82-4.02-9.64-4.58c-1.85-0.27-2.22-0.35-11.68-0.36H40.2z"/>
<radialGradient id="SVGID_2_" cx="119.1351" cy="-169.0737" r="39.5897" gradientTransform="matrix(0.1739 0.8687 3.5818 -0.7172 572.1887 -218.6541)" gradientUnits="userSpaceOnUse">
	<stop  offset="0" style="stop-color:#3771C8"/>
	<stop  offset="0.128" style="stop-color:#3771C8"/>
	<stop  offset="1" style="stop-color:#6600FF;stop-opacity:0"/>
</radialGradient>
<path class="st1" d="M40.2,0.39c-16.53,0-21.37,0.02-22.31,0.1c-3.39,0.28-5.5,0.82-7.8,1.96c-1.77,0.88-3.17,1.9-4.55,3.33
	C3.03,8.39,1.5,11.6,0.95,15.41c-0.27,1.85-0.35,2.23-0.36,11.69c-0.01,3.15,0,7.3,0,12.87c0,16.52,0.02,21.35,0.1,22.29
	c0.27,3.3,0.79,5.38,1.89,7.65c2.1,4.35,6.1,7.61,10.81,8.83c1.63,0.42,3.44,0.65,5.75,0.76c0.98,0.04,10.98,0.07,20.98,0.07
	s20-0.01,20.96-0.06c2.68-0.13,4.24-0.33,5.96-0.78c4.74-1.22,8.67-4.44,10.81-8.85c1.08-2.22,1.62-4.37,1.87-7.5
	c0.05-0.68,0.08-11.56,0.08-22.42c0-10.86-0.02-21.72-0.08-22.4c-0.25-3.18-0.79-5.32-1.9-7.58c-0.91-1.85-1.92-3.23-3.39-4.64
	c-2.62-2.5-5.82-4.02-9.64-4.58c-1.85-0.27-2.22-0.35-11.68-0.36H40.2z"/>
<path class="st2" d="M40.18,10.75c-7.94,0-8.94,0.03-12.05,0.18c-3.11,0.14-5.24,0.64-7.1,1.36c-1.92,0.75-3.55,1.75-5.18,3.37
	c-1.63,1.63-2.63,3.26-3.37,5.18c-0.72,1.86-1.22,3.98-1.36,7.1c-0.14,3.12-0.18,4.12-0.18,12.06s0.04,8.93,0.18,12.05
	c0.14,3.11,0.64,5.24,1.36,7.1c0.75,1.92,1.75,3.55,3.37,5.18c1.62,1.63,3.26,2.63,5.18,3.37c1.86,0.72,3.99,1.22,7.1,1.36
	c3.12,0.14,4.11,0.18,12.05,0.18c7.94,0,8.93-0.03,12.05-0.18c3.11-0.14,5.24-0.64,7.1-1.36c1.92-0.75,3.55-1.75,5.18-3.37
	c1.63-1.63,2.63-3.26,3.37-5.18c0.72-1.86,1.21-3.98,1.36-7.1c0.14-3.12,0.18-4.11,0.18-12.05s-0.04-8.94-0.18-12.05
	c-0.15-3.11-0.64-5.24-1.36-7.1c-0.75-1.92-1.75-3.55-3.37-5.18c-1.63-1.63-3.25-2.63-5.18-3.37c-1.86-0.72-3.99-1.22-7.1-1.36
	C49.11,10.78,48.11,10.75,40.18,10.75L40.18,10.75z M37.56,16.02c0.78,0,1.65,0,2.62,0c7.81,0,8.73,0.03,11.81,0.17
	c2.85,0.13,4.4,0.61,5.43,1.01c1.36,0.53,2.34,1.16,3.36,2.19c1.02,1.02,1.66,2,2.19,3.36c0.4,1.03,0.88,2.58,1.01,5.43
	c0.14,3.08,0.17,4.01,0.17,11.81s-0.03,8.73-0.17,11.81c-0.13,2.85-0.61,4.4-1.01,5.43c-0.53,1.36-1.16,2.34-2.19,3.36
	c-1.02,1.02-1.99,1.66-3.36,2.19c-1.03,0.4-2.58,0.88-5.43,1.01c-3.08,0.14-4.01,0.17-11.81,0.17c-7.81,0-8.73-0.03-11.81-0.17
	c-2.85-0.13-4.4-0.61-5.43-1.01c-1.36-0.53-2.34-1.16-3.36-2.19c-1.02-1.02-1.66-2-2.19-3.36c-0.4-1.03-0.88-2.58-1.01-5.43
	c-0.14-3.08-0.17-4.01-0.17-11.81s0.03-8.73,0.17-11.81c0.13-2.85,0.61-4.4,1.01-5.43c0.53-1.36,1.16-2.34,2.19-3.36
	c1.02-1.02,2-1.66,3.36-2.19c1.03-0.4,2.58-0.88,5.43-1.01C31.06,16.05,32.11,16.02,37.56,16.02L37.56,16.02z M55.79,20.87
	c-1.94,0-3.51,1.57-3.51,3.51c0,1.94,1.57,3.51,3.51,3.51s3.51-1.57,3.51-3.51S57.72,20.87,55.79,20.87L55.79,20.87z M40.18,24.97
	c-8.29,0-15.01,6.72-15.01,15.01s6.72,15.01,15.01,15.01c8.29,0,15.01-6.72,15.01-15.01S48.47,24.97,40.18,24.97L40.18,24.97z
	 M40.18,30.24c5.38,0,9.75,4.36,9.75,9.75c0,5.38-4.36,9.75-9.75,9.75c-5.38,0-9.75-4.36-9.75-9.75
	C30.43,34.6,34.8,30.24,40.18,30.24z"/>
</svg>
