<?xml version="1.0" encoding="utf-8"?>
<!-- Generator: Adobe Illustrator 12.0.1, SVG Export Plug-In  -->
<!DOCTYPE svg PUBLIC "-//W3C//DTD SVG 1.1//EN" "http://www.w3.org/Graphics/SVG/1.1/DTD/svg11.dtd" [
	<!ENTITY ns_flows "http://ns.adobe.com/Flows/1.0/">
	<!ENTITY ns_svg "http://www.w3.org/2000/svg">
	<!ENTITY ns_xlink "http://www.w3.org/1999/xlink">
]>
<svg  version="1.1" xmlns="&ns_svg;" xmlns:xlink="&ns_xlink;" xmlns:a="http://ns.adobe.com/AdobeSVGViewerExtensions/3.0/"
	 width="100" height="66" viewBox="0 -0.241 100 66" enable-background="new 0 -0.241 100 66" xml:space="preserve">
<defs>
</defs>
<rect x="3.448" y="3.448" fill="#C8414B" width="93.103" height="58.622"/>
<path fill="#E6B432" d="M98.276,0H1.724C0.772,0,0,0.772,0,1.724v62.068c0,0.953,0.772,1.725,1.724,1.725h96.552
	c0.952,0,1.725-0.771,1.725-1.725V1.724C100,0.772,99.227,0,98.276,0z M96.551,62.069H3.448V3.448h93.103V62.069z"/>
<circle fill="#41479B" cx="64.147" cy="43.573" r="2.624"/>
<path fill="#E6B432" d="M68.75,28.509c-1.931,1.623-3.229,1.691-3.229,1.691c3.435-1.401,3.075-4.067,3.075-4.067
	c-1.623,2.136-3.28,2.734-3.28,2.734c3.452-2.341,2.905-5.485,2.905-5.485c-1.128,2.495-2.555,3.469-2.555,3.469
	c2.871-3.819,1.461-6.28,1.461-6.28c-1.128,3.537-2.076,4.563-2.076,4.563c2.204-5.896,0.316-7.596,0.316-7.596
	c0,3.161-1.18,4.973-1.18,4.973c1.23-4.169-0.7-6.562-0.7-6.562s-0.019,3.399-0.673,5.18c-0.157-0.239-0.25-0.207-0.25-0.207
	c-0.333,2.183-1.506,3.72-2.014,4.299c-0.111-0.544-0.45-0.711-0.45-0.711s-0.062,0.534-0.54,1.322
	c-0.314,0.516-1.798,1.72-2.037,2.779c-0.191,0.849,0.649,1.555,0.923,1.726s0.563,0.479,0.444,0.974
	c-0.12,0.496-1.009,0.444-1.641,0.427c-0.633-0.017-0.718,1.025-1.418,0.991l-0.119,0.778l-0.274,0.06c0,0-2.871,5.721-3.115,7.667
	l-2.114,0.279l-2.114-0.279c-0.245-1.946-3.115-7.667-3.115-7.667l-0.274-0.06l-0.119-0.778c-0.701,0.034-0.786-1.008-1.418-0.991
	s-1.521,0.068-1.641-0.427c-0.119-0.495,0.171-0.803,0.444-0.974c0.273-0.171,1.115-0.876,0.923-1.726
	c-0.239-1.06-1.723-2.263-2.037-2.779c-0.479-0.788-0.54-1.322-0.54-1.322s-0.338,0.167-0.451,0.711
	c-0.506-0.579-1.68-2.116-2.013-4.299c0,0-0.093-0.032-0.25,0.207c-0.654-1.781-0.673-5.18-0.673-5.18s-1.931,2.392-0.7,6.562
	c0,0-1.179-1.811-1.179-4.972c0,0-1.888,1.7,0.316,7.595c0,0-0.948-1.025-2.076-4.563c0,0-1.41,2.46,1.461,6.28
	c0,0-1.427-0.974-2.554-3.469c0,0-0.547,3.144,2.905,5.485c0,0-1.658-0.598-3.281-2.734c0,0-0.359,2.666,3.076,4.067
	c0,0-1.299-0.068-3.229-1.691c0,0-0.342,2.358,4.135,3.571c0,0-1.829-0.034-3.691-1.282c0,0-0.052,2.324,3.776,2.785
	c0,0-1.265,0.188-2.683-0.324c0,0,0.051,1.88,3.383,2.119c0,0-1.315,0.103-2.17-0.103c0,0,0.085,1.931,2.717,1.606
	c0,0-0.889,0.29-1.179,0.375c0,0,0.051,1.576,2.793,1.013c0,0-0.487,0.304-1.153,0.406c0,0,0.564,1.315,2.854,0.734l-0.47,0.513
	c0,0,1.769,1.025,3.127-0.385l-0.487,0.872c0,0,1.154,0.436,1.871-0.692c0,0-0.196,1.691-2.589,2c0,0,0.085,0.358,0.188,0.495
	c0,0-0.154,0.29-1.538,0.53c0,0,0.291,0.443,0.598,0.58c0,0-0.598,0.514-0.922,0.615c0,0,0.513,0.256,0.837,0.308
	c0,0-0.717,0.7-1.606,0.718s-2.478-0.086-2.478-0.086s-0.017-0.854-0.427-1.589s-0.547-0.79-0.547-0.79s0.09-0.59-0.167-0.833
	s-0.397-0.358-0.397-0.358s0.137-1.18-0.239-1.914c-0.376-0.735-1.709-2.342-1.777-3.537c-0.068-1.196-0.017-1.641-0.017-1.641
	l-0.41,0.103l-0.273-0.563l0.461-0.052l-0.188-0.854l-0.632,0.239l-0.085-0.735l-0.752,0.308l0.376,0.667l-0.667,0.188l0.393,0.786
	l0.513-0.324l0.137,0.683c0,0-0.308,0.068-0.479,0.342c0,0,0.846,0.562,1.094,1.23c0.393,1.061,0.273,3.452,0.837,4.17
	c0.563,0.718,1.008,1.213,1.008,1.213s-0.158,0.487,0.021,0.756c0.18,0.27,0.436,0.347,0.436,0.347s-0.154,1.089,0.244,1.807
	s0.628,0.897,0.628,0.897s-1.448,0.885-0.423,1.91c0,0-0.137,0.931,0.837,1.152c0,0,0.051,0.735,0.889,0.65
	c0,0,0.41-0.12,0.513,0.085s0,1.384,0,1.384s0.376-0.033,0.615-0.205l0.751,0.377l0.017-0.838l0.94-0.376
	c0,0-0.41,0.068-1.248-0.718c0,0,0.137-0.085,0.239-0.752c0,0,0.667-0.529,0.803-0.957c0.137-0.427,1.077-1.366,2.17-1.674
	l0.149,0.666c0,0,1.563-1.384,2.217-1.461l0.539,0.709c0,0,2.016-2.99,2.905-3.52c-0.068,0.238,0.427,0.273-0.675,1.504
	c-1.103,1.23-0.419,2.203-0.419,2.203c-0.684,0.564-0.547,1.077-0.632,1.658s-2.358,2.085-2.358,2.085
	c0.718,0.905,1.521,0.7,1.521,0.7c-0.444,0.291-0.308,1.265-0.308,1.265c0.649,0.171,1.299-0.12,1.299-0.12
	c-0.223,0.615,0.119,1.043,0.119,1.043c0.41-0.256,1.35-0.41,1.35-0.41c-0.12,1.06,0.564,1.623,0.564,1.623l0.598-0.649
	c0.103,1.196,1.162,1.88,1.162,1.88s1.059-0.684,1.163-1.88l0.598,0.649c0,0,0.684-0.564,0.563-1.623c0,0,0.94,0.154,1.351,0.41
	c0,0,0.342-0.428,0.119-1.043c0,0,0.649,0.291,1.299,0.12c0,0,0.137-0.974-0.308-1.265c0,0,0.804,0.205,1.521-0.7
	c0,0-2.272-1.504-2.357-2.085c-0.086-0.581,0.051-1.094-0.633-1.658c0,0,0.684-0.974-0.419-2.203
	c-1.103-1.23-0.606-1.266-0.675-1.504c0.889,0.529,2.904,3.52,2.904,3.52l0.539-0.709c0.653,0.077,2.217,1.461,2.217,1.461
	l0.149-0.666l0.028-0.031c0.815,0.439,2.162,1.033,2.706,1.449c0.581,0.444,1.06,0.479,2.46,0c1.402-0.479,4.008-1.215,3.623-2.085
	c-0.021-0.048-0.045-0.079-0.068-0.116c0.062-0.225,0.086-0.617-0.324-0.961c0,0,0.004,0.096,0.001,0.219l-1.336-0.498
	c-0.044-0.118-0.11-0.234-0.237-0.335c0,0,0.002,0.103-0.017,0.241l-0.343-0.129l0.684-1.923c-0.051-0.029-0.109-0.046-0.164-0.071
	c0.015-0.174,0.047-0.414,0.098-0.666c0.168,0.059,0.32,0.131,0.431,0.221l0.192-0.704c0,0-0.207-0.014-0.48-0.065
	c0.068-0.212,0.15-0.402,0.248-0.526l-0.905-0.273c0,0,0.023,0.274,0.007,0.617c-0.172-0.07-0.337-0.159-0.471-0.273l-0.212,0.782
	c0.073,0.004,0.32,0.025,0.606,0.076c-0.051,0.229-0.143,0.434-0.273,0.586c-0.032-0.004-0.063-0.016-0.095-0.02l-0.664,1.868
	l-1.801-0.671c-0.077,0.121-0.137,0.254-0.192,0.388c0.01-0.02,0.018-0.05,0.028-0.062c0,0-0.696,0.363-0.687,0.899
	c-0.129,0.048-0.242,0.145-0.305,0.312c-0.205,0.539,1.051,1.743,0.743,1.896c-0.302,0.151-1.88-1.148-2.132-1.366
	c0.324-0.063,0.799-0.3,0.799-0.3c-0.324-0.102-0.922-0.615-0.922-0.615c0.307-0.137,0.598-0.58,0.598-0.58
	c-1.385-0.24-1.538-0.53-1.538-0.53c0.103-0.137,0.188-0.495,0.188-0.495c-2.393-0.308-2.59-2-2.59-2
	c0.718,1.128,1.871,0.692,1.871,0.692l-0.486-0.872c1.357,1.41,3.127,0.385,3.127,0.385l-0.471-0.512
	c2.29,0.58,2.854-0.735,2.854-0.735c-0.666-0.103-1.152-0.405-1.152-0.405c2.742,0.563,2.793-1.014,2.793-1.014
	c-0.291-0.085-1.18-0.375-1.18-0.375c2.633,0.324,2.718-1.606,2.718-1.606c-0.854,0.205-2.171,0.103-2.171,0.103
	c3.332-0.239,3.385-2.119,3.385-2.119c-1.419,0.514-2.684,0.325-2.684,0.325c3.828-0.461,3.776-2.786,3.776-2.786
	c-1.862,1.248-3.69,1.282-3.69,1.282C69.092,30.867,68.75,28.509,68.75,28.509z M64.868,45.414
	c-0.184-0.297,0.252-0.563,0.448-0.845l0.757,0.282C65.816,45.158,65.055,45.718,64.868,45.414z M64.362,44.213
	c-0.246,0.381-0.417,0.808-1.174,0.828c-0.947,0.025-1.102-0.82-1.307-1.282c-0.06-0.135-0.163-0.236-0.281-0.306
	c0-0.083,0.004-0.173,0.012-0.265L64.362,44.213z"/>
<path fill="#E6B432" d="M49.929,26.16c0,0-1.217-1.038-1.577-1.602c0,0,0.41-0.167,0.615-0.423c0,0-1.102-0.589-1.691-1.192
	c0,0,0.384-0.064,0.679-0.308c0,0-0.99-0.179-1.492-0.989c1.144-0.391,0.761-1.458,0.761-1.458
	c-0.231,0.308-1.179,0.692-2.205,0.256c-1.025-0.436-2.153-0.128-2.153,0.436c0,0-2.307-0.667-1.73,1.563
	c0,0,0.372-0.833,1.192-0.525s1.653,1.358,1.653,1.358s-0.513,0.282-1.461-0.025c0,0,0.384,1.474,2.115,0.73
	c0,0,0.683,0.367,0.717,1.444c0,0,0.291-0.154,0.479-0.496c0,0,0.273,1.042-0.085,1.897c0,0,0.479-0.085,0.633-0.239
	c0,0,0.137,0.906-0.461,1.64c0,0,2.627,1.252,4.293-0.119c0,0-0.628-0.718-0.833-1.384C49.377,26.723,49.723,26.583,49.929,26.16z"
	/>
<path fill="#E6B432" d="M57.554,20.879c0-0.564-1.128-0.872-2.153-0.436c-1.025,0.436-1.974,0.051-2.204-0.256
	c0,0-0.384,1.067,0.761,1.458c-0.502,0.811-1.491,0.989-1.491,0.989c0.295,0.244,0.679,0.308,0.679,0.308
	c-0.589,0.603-1.691,1.192-1.691,1.192c0.205,0.256,0.615,0.423,0.615,0.423c-0.358,0.564-1.576,1.602-1.576,1.602
	c0.205,0.423,0.551,0.563,0.551,0.563c-0.205,0.667-0.833,1.384-0.833,1.384c1.667,1.371,4.293,0.12,4.293,0.12
	c-0.598-0.735-0.461-1.641-0.461-1.641c0.153,0.154,0.632,0.239,0.632,0.239c-0.358-0.854-0.085-1.896-0.085-1.896
	c0.188,0.342,0.479,0.495,0.479,0.495c0.033-1.076,0.717-1.444,0.717-1.444c1.73,0.744,2.115-0.73,2.115-0.73
	c-0.948,0.308-1.461,0.026-1.461,0.026s0.833-1.051,1.653-1.358s1.191,0.525,1.191,0.525C59.861,20.213,57.554,20.879,57.554,20.879
	z"/>
<path fill="#E6B432" d="M56.509,34.494c-0.225-1.31-0.419-2.441,0.146-3.737l0.105-0.242l-2.237-2.569l-0.266,0.088
	c-0.022,0.008-2.361,0.772-3.86,0.022l-0.188-0.093l-0.187,0.093c-1.492,0.748-3.837-0.015-3.862-0.023l-0.264-0.087l-2.237,2.569
	l0.105,0.242c0.565,1.296,0.371,2.427,0.146,3.737c-0.212,1.236-0.452,2.639-0.029,4.349c0.459,1.855,2.005,2.515,3.369,3.099
	c1.051,0.448,2.044,0.872,2.605,1.762l0.354,0.561l0.354-0.561c0.562-0.89,1.554-1.313,2.605-1.762
	c1.364-0.583,2.91-1.242,3.369-3.099C56.961,37.132,56.721,35.73,56.509,34.494z M44.633,30.67l1.536-1.763
	c0.696,0.191,2.576,0.605,4.042-0.017c1.466,0.622,3.346,0.208,4.042,0.017l1.535,1.763c-0.539,1.42-0.326,2.658-0.103,3.965
	c0.168,0.979,0.335,1.987,0.194,3.148H44.542c-0.14-1.161,0.027-2.169,0.194-3.148C44.96,33.329,45.172,32.09,44.633,30.67z
	 M52.841,41.171c-0.95,0.406-1.929,0.822-2.631,1.615c-0.703-0.793-1.681-1.209-2.631-1.615c-1.333-0.569-2.484-1.067-2.864-2.465
	h10.989C55.326,40.104,54.174,40.602,52.841,41.171z"/>
<path fill="#41479B" d="M44.633,30.67l1.536-1.763c0.696,0.191,2.576,0.605,4.042-0.017c1.466,0.622,3.346,0.208,4.042,0.017
	l1.535,1.763c-0.539,1.42-0.326,2.658-0.103,3.965c0.168,0.979,0.335,1.987,0.194,3.148H44.542c-0.14-1.161,0.027-2.169,0.194-3.148
	C44.96,33.329,45.172,32.09,44.633,30.67z"/>
<path fill="#73AF00" d="M44.657,38.462c0.013,0.061,0.021,0.118,0.037,0.179c0.359,1.452,1.53,1.951,2.886,2.53
	c0.95,0.406,1.928,0.822,2.631,1.615c0.703-0.793,1.68-1.209,2.631-1.615c1.355-0.579,2.526-1.079,2.885-2.53
	c0.016-0.061,0.023-0.118,0.037-0.179H44.657z"/>
<path fill="#E6B432" d="M55.227,33.617c0-0.756-0.719-0.875-1.371-0.863c-0.654,0.013-1.609-0.106-1.634-0.614
	c-0.015-0.317,0.517-0.346,0.862-0.235c0.201,0.064,1.45,0.288,1.842-0.549c0,0-0.457,0.015-0.938-0.093
	c-0.372-0.083-1.896,0.106-2.171,0.694c-0.273,0.588,0.611,1.174,1.63,1.174s1.159,0.204,1.15,0.452
	c-0.011,0.327-0.818,0.42-1.282,0.415c-0.731-0.266-2.438-0.058-2.445-0.09c-0.01-0.04-0.394-0.698-0.394-0.698
	s0.699-0.049,0.787-0.177c0.089-0.127-0.529-0.619-0.529-0.619s0.52-0.208,0.539-0.355c0.021-0.163-0.422-0.546-0.422-0.546
	s0.172-0.169,0.301-0.458c0.092-0.206-0.641-0.261-0.641-0.261c0.039-0.157,0.024-0.309-0.169-0.379
	c-0.15-0.054-0.706,0.157-1.084,0.157c-0.378,0-0.522,0.274-0.522,0.274s-0.666,0.079-0.758,0.157
	c-0.091,0.078,0.026,0.588,0.026,0.588c-0.34-0.052-0.497-0.353-0.497-0.353c-0.17,0.771,0.627,0.849,0.627,0.849l0.13,0.418
	c0,0,0,0,0.327,0.039c0.327,0.04,0.17,0.353-0.34,0.353c-0.509,0-0.726,0.607-0.726,0.607c-0.354,0.01-0.551-0.275-0.629-0.639
	c-0.087-0.401-0.036-1.016,0.029-1.407c0.079-0.472-0.157-0.61-0.157-0.61l-0.158,0.394c-0.01-0.403-0.364-0.442-0.364-0.442
	l-0.059,0.492c-0.177-0.325-0.482-0.177-0.482-0.177s0.295,1.063,0.286,1.122c-0.01,0.059-0.108,0.108-0.246-0.04
	c-0.138-0.148-0.236-0.049-0.236-0.049c0.147,1.063,0.717,0.906,0.717,0.906s0.025,0.333,0.197,1.009
	c0.184,0.722,0.939,0.585,0.939,0.585c0,0.235,0.183,0.575,0.235,1.359c0.052,0.783-0.667,1.332-0.667,1.332
	c-0.653-0.013-0.588,0.627-0.588,0.627h1.803c0-1.666,0.717-1.952,0.717-1.952c1.063,0.049,2.085-0.394,2.085-0.394
	c-0.157,0.639,0.119,0.904,0.119,0.904c0.432-0.059,0.216,0.797,0.088,0.797s-0.394,0-0.551,0s-0.61,0.492-0.61,0.492h1.869
	c0,0,0.286-0.413,0.384-0.619c0.098-0.207-0.217-0.492-0.236-0.709s0.325-0.354,0.325-0.354c0.364,0.511,1.2,0.541,1.2,0.541
	l-0.02-0.384c0,0,0.433,0.147,0.531,0.275c0.098,0.128,0.078,0.718-0.443,0.786c-0.521,0.069-0.561,0.443-0.561,0.443
	s1.19,0,1.427,0c0.235,0,0.423-0.443,0.423-0.61s0-1.259,0-1.495s-0.197-0.207-0.659-0.256c-0.42-0.045-0.38-0.504-0.553-1.037
	C54.288,34.375,55.227,34.243,55.227,33.617z"/>
<path fill="#E6B432" d="M55.117,15.742c-0.117-1.032-0.939-2.345-4.071-2.96c-0.01-0.333-0.215-0.615-0.508-0.734v-0.575h0.513
	v-0.615h-0.513v-0.512h-0.615v0.513H49.41v0.615h0.513v0.575c-0.292,0.119-0.497,0.4-0.508,0.733
	c-3.132,0.616-3.954,1.929-4.071,2.96c-0.146,1.286,0.775,2.506,1.605,2.973v0.652h6.562v-0.652
	C54.341,18.248,55.262,17.028,55.117,15.742z M51.681,17.727h-0.918v-3.783c0.757,0.342,1.226,0.867,1.361,1.587
	C52.294,16.428,51.936,17.342,51.681,17.727z M48.335,15.53c0.136-0.721,0.604-1.245,1.361-1.586v3.783h-0.918
	C48.523,17.342,48.165,16.427,48.335,15.53z M47.576,14.491c-0.151,0.302-0.247,0.604-0.296,0.882
	c-0.148,0.84,0.022,1.694,0.303,2.354h-0.215c-0.46-0.317-1.052-1.096-0.964-1.865C46.464,15.324,46.872,14.862,47.576,14.491z
	 M53.092,17.727h-0.216c0.281-0.659,0.452-1.513,0.304-2.354c-0.049-0.277-0.146-0.58-0.297-0.882
	c0.705,0.371,1.112,0.833,1.174,1.371C54.144,16.631,53.553,17.41,53.092,17.727z"/>
</svg>
