<?xml version="1.0" encoding="utf-8"?>
<!-- Generator: Adobe Illustrator 12.0.1, SVG Export Plug-In  -->
<!DOCTYPE svg PUBLIC "-//W3C//DTD SVG 1.1//EN" "http://www.w3.org/Graphics/SVG/1.1/DTD/svg11.dtd" [
	<!ENTITY ns_flows "http://ns.adobe.com/Flows/1.0/">
	<!ENTITY ns_svg "http://www.w3.org/2000/svg">
	<!ENTITY ns_xlink "http://www.w3.org/1999/xlink">
]>
<svg  version="1.1" xmlns="&ns_svg;" xmlns:xlink="&ns_xlink;" xmlns:a="http://ns.adobe.com/AdobeSVGViewerExtensions/3.0/"
	 width="24" height="23" viewBox="-0.026 0 24 23" enable-background="new -0.026 0 24 23" xml:space="preserve">
<defs>
</defs>
<path fill="#2B66B1" d="M13.796,0.112c-0.118-0.097-0.274-0.133-0.422-0.101L0.387,3.008C0.159,3.062-0.002,3.266,0,3.5v16.982
	c0,0.246,0.18,0.455,0.424,0.493l12.985,1.998c0.272,0.041,0.527-0.146,0.569-0.419c0.004-0.024,0.006-0.05,0.006-0.075V0.503
	C13.984,0.352,13.916,0.207,13.796,0.112z"/>
<path fill="#2B66B1" d="M23.475,20.981h-9.989c-0.275,0-0.499-0.225-0.499-0.499c0-0.277,0.224-0.5,0.499-0.5h9.489V3.001h-9.489
	c-0.275,0-0.499-0.224-0.499-0.5s0.224-0.5,0.499-0.5h9.989c0.274,0,0.499,0.224,0.499,0.5v17.981
	C23.974,20.757,23.749,20.981,23.475,20.981z"/>
<path fill="#FAFAFA" d="M8.491,15.987c-0.222,0-0.418-0.148-0.479-0.362l-1.519-5.312l-1.518,5.312
	c-0.11,0.266-0.414,0.391-0.679,0.28c-0.128-0.053-0.229-0.152-0.281-0.28L2.017,8.632C1.933,8.37,2.078,8.089,2.341,8.005
	C2.604,7.922,2.885,8.067,2.969,8.33c0.003,0.009,0.005,0.019,0.008,0.028l1.519,5.312l1.519-5.313
	c0.109-0.266,0.413-0.391,0.678-0.282C6.819,8.128,6.92,8.229,6.973,8.357l1.518,5.313l1.519-5.312
	c0.072-0.263,0.343-0.417,0.605-0.345c0.004,0,0.008,0.002,0.012,0.002c0.264,0.076,0.418,0.352,0.342,0.617l-1.998,6.993
	C8.91,15.84,8.714,15.987,8.491,15.987z"/>
<path fill="#2B66B1" d="M21.477,5.998h-7.991c-0.275,0-0.499-0.224-0.499-0.5c0-0.275,0.224-0.5,0.499-0.5h7.991
	c0.276,0,0.499,0.224,0.499,0.5C21.976,5.774,21.753,5.998,21.477,5.998z"/>
<path fill="#2B66B1" d="M21.477,8.994h-7.991c-0.275,0-0.499-0.223-0.499-0.5c0-0.275,0.224-0.5,0.499-0.5h7.991
	c0.276,0,0.499,0.224,0.499,0.5C21.976,8.771,21.753,8.994,21.477,8.994z"/>
<path fill="#2B66B1" d="M21.477,11.99h-7.991c-0.275,0-0.499-0.223-0.499-0.499c0-0.275,0.224-0.499,0.499-0.499h7.991
	c0.276,0,0.499,0.224,0.499,0.499C21.976,11.768,21.753,11.99,21.477,11.99z"/>
<path fill="#2B66B1" d="M21.477,14.988h-7.991c-0.275,0-0.499-0.225-0.499-0.5s0.224-0.499,0.499-0.499h7.991
	c0.276,0,0.499,0.224,0.499,0.499S21.753,14.988,21.477,14.988z"/>
<path fill="#2B66B1" d="M21.477,17.984h-7.991c-0.275,0-0.499-0.225-0.499-0.499c0-0.276,0.224-0.499,0.499-0.499h7.991
	c0.276,0,0.499,0.223,0.499,0.499C21.976,17.76,21.753,17.984,21.477,17.984z"/>
</svg>
